# xmcd
#
# Track frame offsets: 
#        150
#        13702
#        31547
#        43907
#        59107
#        93277
#        106172
#        122520
#        135465
#        148230
#        157187
#        182455
#        197860
#        209640
#        221095
#        234557
#        248992
#        260347
#        284747
#        298665
#        312375
#        327082
#        338690
#        349917
#        351595
#
# Disc length: 4739 seconds
#
# Revision: 3
# Processed by: cddbd v1.5.2PL0 Copyright (c) Steve Scherf et al.
# Submitted via: ExactAudioCopy v0.99pb4
#
DISCID=96128119
DTITLE=Canned Heat - Uncanned! The best of Canned Heat [CD2] 
DYEAR=1994
DGENRE=Blues
TTITLE0=Evil woman
TTITLE1=Amphetamine Annie
TTITLE2=An owl song
TTITLE3=Terraplane blues 
TTITLE4=Christmas blues (alternate take)
TTITLE5=Going up the country
TTITLE6=Time was
TTITLE7=Low down (and high up)
TTITLE8=Same all over
TTITLE9=Big Fat (the fat man)
TTITLE10=It's all right
TTITLE11=Poor moon
TTITLE12=Sugar bee
TTITLE13=Shake it and break it
TTITLE14=Future blues
TTITLE15=Let's work together (let's stick together)
TTITLE16=Wooly bully
TTITLE17=Human condition
TTITLE18=Long way from L.A.
TTITLE19=Hill's stomp
TTITLE20=Rockin' with the King
TTITLE21=Harley Davidson blues
TTITLE22=Rock and Roll music
TTITLE23=It's music city...
TTITLE24=Huh?
EXTD=
EXTT0=
EXTT1=
EXTT2=
EXTT3=
EXTT4=
EXTT5=
EXTT6=
EXTT7=
EXTT8=
EXTT9=
EXTT10=
EXTT11=
EXTT12=
EXTT13=
EXTT14=
EXTT15=
EXTT16=
EXTT17=
EXTT18=
EXTT19=
EXTT20=
EXTT21=
EXTT22=
EXTT23=
EXTT24=
PLAYORDER=
